<?xml version="1.0" encoding="iso-8859-1"?>
<!-- Uploaded to: SVG Repo, www.svgrepo.com, Generator: SVG Repo Mixer Tools -->
<svg height="800px" width="800px" version="1.1" id="Layer_1" xmlns="http://www.w3.org/2000/svg" xmlns:xlink="http://www.w3.org/1999/xlink" 
	 viewBox="0 0 512 512" xml:space="preserve">
<path style="fill:#E0E0E2;" d="M405.822,512H106.178c-10.345,0-18.732-8.387-18.732-18.732V373.685
	c0-10.345,8.387-18.732,18.732-18.732h299.644c10.345,0,18.732,8.387,18.732,18.732v119.583
	C424.554,503.613,416.167,512,405.822,512z"/>
<g>
	<circle style="fill:#FF7A53;" cx="228.252" cy="433.477" r="15.06"/>
	<circle style="fill:#FF7A53;" cx="172.769" cy="433.477" r="15.06"/>
</g>
<path style="fill:#C7C5CA;" d="M405.822,354.953H256V512h149.822c10.345,0,18.732-8.387,18.732-18.732V373.685
	C424.554,363.34,416.167,354.953,405.822,354.953z"/>
<path style="fill:#2586FD;" d="M256,337.108c-92.94,0-168.554-75.614-168.554-168.554S163.06,0,256,0
	s168.554,75.612,168.554,168.554S348.94,337.108,256,337.108z"/>
<path style="fill:#3A4DE2;" d="M256,0v337.108c92.94,0,168.554-75.614,168.554-168.554S348.94,0,256,0z"/>
<path style="fill:#FFB64C;" d="M338.553,293.552l-54.138-93.77c19.667-10.284,33.128-30.875,33.128-54.563
	c0-33.934-27.608-61.542-61.542-61.542s-61.542,27.608-61.542,61.542c0,23.688,13.461,44.279,33.128,54.563l-54.138,93.77
	c-5.402,9.358-1.782,21.359,7.917,26.156c23.367,11.557,49.002,17.337,74.636,17.337s51.269-5.778,74.636-17.337
	C340.325,314.916,343.963,302.922,338.553,293.552z"/>
<g>
	<circle style="fill:#FF0536;" cx="339.231" cy="433.477" r="15.06"/>
	<circle style="fill:#FF0536;" cx="283.748" cy="433.477" r="15.06"/>
</g>
<path style="fill:#FF8700;" d="M338.553,293.552l-54.138-93.77c19.667-10.284,33.128-30.875,33.128-54.563
	c0-33.934-27.608-61.542-61.542-61.542v85.634v37.451v130.284c25.634,0,51.269-5.778,74.636-17.337
	C340.325,314.916,343.963,302.922,338.553,293.552z"/>
</svg>