<?xml version="1.0" encoding="iso-8859-1"?>
<!-- Uploaded to: SVG Repo, www.svgrepo.com, Generator: SVG Repo Mixer Tools -->
<svg fill="#000000" height="800px" width="800px" version="1.1" id="Capa_1" xmlns="http://www.w3.org/2000/svg" xmlns:xlink="http://www.w3.org/1999/xlink" 
	 viewBox="0 0 489.257 489.257" xml:space="preserve">
<g>
	<g>
		<circle cx="119.829" cy="19.9" r="19.9"/>
		<circle cx="119.829" cy="104.6" r="19.9"/>
		<circle cx="202.729" cy="19.9" r="19.9"/>
		<circle cx="285.629" cy="19.9" r="19.9"/>
		<path d="M173.129,370.9c-12.9-4.7-41.2-18.8-47.6-19.4c-10.6-1.8-21.8-2.4-32.3,2.9c-4.7,2.4-10,8.2-11.8,12.9
			c-3.5,9.4-1.2,15.3,8.2,18.2c21.2,7.1,41.2,17.6,60,30c7.1,4.7,17.6,10,24.7,15.3c10.6,7.6,21.2,11.2,32.9,13.5
			c0,0,46.4,9.4,84.1,38.2c12.3,9.4,29.4,8.8,41.2-0.6l71.1-58.2c5.9-5.3,7.6-14.1,3.5-21.2l-8.2-14.7c-2.4-5.9-6.5-14.7-9.4-25.3
			c-5.9-41.2-27.6-83.5-35.9-98.8c-1.8-4.1-5.3-6.5-9.4-7.6c-74.7-17.6-140.5,7.6-140.5,7.6l-11.2-14.1c-8.8-11.8-18.2-22.9-27-34.7
			c-10-12.9-19.4-25.3-29.4-37.6c-7.1-8.8-18.8-10.6-27.6-4.7c-8.8,6.5-11.2,17-5.3,27c25.9,45.9,51.7,91.1,76.4,137
			c2.4,5.3,4.7,10.6,5.3,16.5C186.129,365.1,184.329,375,173.129,370.9z"/>
		<circle cx="285.629" cy="189.3" r="19.9"/>
		<circle cx="202.729" cy="104.6" r="19.9"/>
		<circle cx="202.729" cy="189.3" r="19.9"/>
		<circle cx="285.629" cy="104.6" r="19.9"/>
	</g>
</g>
</svg>