<!DOCTYPE svg PUBLIC "-//W3C//DTD SVG 1.1//EN" "http://www.w3.org/Graphics/SVG/1.1/DTD/svg11.dtd">
<!-- Uploaded to: SVG Repo, www.svgrepo.com, Transformed by: SVG Repo Mixer Tools -->
<svg height="800px" width="800px" version="1.1" id="Layer_1" xmlns="http://www.w3.org/2000/svg" xmlns:xlink="http://www.w3.org/1999/xlink" viewBox="0 0 512 512" xml:space="preserve" fill="#000000">
<g id="SVGRepo_bgCarrier" stroke-width="0"/>
<g id="SVGRepo_tracerCarrier" stroke-linecap="round" stroke-linejoin="round"/>
<g id="SVGRepo_iconCarrier"> <circle style="fill:#4d82ff;" cx="256" cy="256" r="256"/> <path style="fill:#2455b7;" d="M512,256c0-10.23-0.619-20.313-1.786-30.23L398.222,113.778l-70.57,79.717l-15.403,14.745 L197.387,93.379l-43.098,36.776l117.148,117.148l-157.66,150.919L225.77,510.214C235.685,511.381,245.77,512,256,512 C397.384,512,512,397.384,512,256z"/> <polygon style="fill:#FFEDB5;" points="398.222,113.778 113.778,113.778 113.778,398.222 314.901,398.222 398.222,314.901 "/> <polygon style="fill:#FEE187;" points="256.288,113.778 256.288,398.222 314.901,398.222 398.222,314.901 398.222,113.778 "/> <polygon style="fill:#FFC61B;" points="314.901,398.222 398.222,314.901 314.901,314.901 "/> <path style="fill:#C92F00;" d="M199.111,312.889l-28.444,56.889l-28.444-56.889V99.699c0-7.933,6.432-14.365,14.367-14.365h28.157 c7.933,0,14.367,6.432,14.367,14.365v213.19H199.111z"/> <polygon style="fill:#4d82ff;" points="142.222,312.027 142.222,312.889 170.667,369.778 199.111,312.889 199.111,312.027 "/> <path style="fill:#386895;" d="M184.746,85.333h-28.157c-7.933,0-14.367,6.432-14.367,14.365v37.638h56.889V99.699 C199.111,91.765,192.679,85.333,184.746,85.333z"/> </g>
</svg>