<svg xmlns="http://www.w3.org/2000/svg" viewBox="0 0 1024 768" width="1024" height="768" preserveAspectRatio="xMidYMid meet" style="width: 100%; height: 100%; transform: translate3d(0px, 0px, 0px);"><defs fill="#000000"><clipPath id="__lottie_element_2" fill="#000000"><rect width="1024" height="768" x="0" y="0" fill="#000000"/></clipPath><clipPath id="__lottie_element_4" fill="#000000"><path d="M0,0 L1024,0 L1024,768 L0,768z" fill="#000000"/></clipPath><mask id="__lottie_element_16" mask-type="alpha" fill="#000000"><g transform="matrix(0.7400000095367432,0,0,0.7400000095367432,512,384)" opacity="1" style="display: block;"><g opacity="1" transform="matrix(1,0,0,1,0,0)"><path fill="rgb(8,87,160)" fill-opacity="1" d=" M512,-384 C512,-384 512,384 512,384 C512,384 -512,384 -512,384 C-512,384 -512,-384 -512,-384 C-512,-384 512,-384 512,-384z"/></g></g></mask><clipPath id="__lottie_element_38" fill="#000000"><path d="M0,0 L1024,0 L1024,768 L0,768z" fill="#000000"/></clipPath><mask id="__lottie_element_50" mask-type="alpha" fill="#000000"><g transform="matrix(0.7400000095367432,0,0,0.7400000095367432,512,384)" opacity="1" style="display: block;"><g opacity="1" transform="matrix(1,0,0,1,0,0)"><path fill="rgb(8,87,160)" fill-opacity="1" d=" M512,-384 C512,-384 512,384 512,384 C512,384 -512,384 -512,384 C-512,384 -512,-384 -512,-384 C-512,-384 512,-384 512,-384z"/></g></g></mask><clipPath id="__lottie_element_72" fill="#000000"><path d="M0,0 L1024,0 L1024,768 L0,768z" fill="#000000"/></clipPath><mask id="__lottie_element_84" mask-type="alpha" fill="#000000"><g transform="matrix(0.7400000095367432,0,0,0.7400000095367432,512,384)" opacity="1" style="display: block;"><g opacity="1" transform="matrix(1,0,0,1,0,0)"><path fill="rgb(8,87,160)" fill-opacity="1" d=" M512,-384 C512,-384 512,384 512,384 C512,384 -512,384 -512,384 C-512,384 -512,-384 -512,-384 C-512,-384 512,-384 512,-384z"/></g></g></mask><clipPath id="__lottie_element_106" fill="#000000"><path d="M0,0 L1024,0 L1024,768 L0,768z" fill="#000000"/></clipPath><mask id="__lottie_element_118" mask-type="alpha" fill="#000000"><g transform="matrix(0.7400000095367432,0,0,0.7400000095367432,512,384)" opacity="1" style="display: block;"><g opacity="1" transform="matrix(1,0,0,1,0,0)"><path fill="rgb(8,87,160)" fill-opacity="1" d=" M512,-384 C512,-384 512,384 512,384 C512,384 -512,384 -512,384 C-512,384 -512,-384 -512,-384 C-512,-384 512,-384 512,-384z"/></g></g></mask></defs><g clip-path="url(#__lottie_element_2)"><g clip-path="url(#__lottie_element_106)" transform="matrix(1,0,0,1,0,40)" opacity="1" style="display: block;"><g transform="matrix(1,0,0,1,508.0159912109375,318)" opacity="1" style="display: block;"><g opacity="1" transform="matrix(1,0,0,1,0,0)"><path fill="#dde0ff" fill-opacity="1" d=" M-158.0850067138672,126.5 C-158.0850067138672,126.5 157.67999267578125,126.5 157.67999267578125,126.5 C189.82899475097656,126.5 217.70899963378906,103.552001953125 223.093994140625,71.85700225830078 C224.05999755859375,66.16899871826172 224.531005859375,60.31399917602539 224.46099853515625,54.334999084472656 C223.85299682617188,2.5390000343322754 182.01499938964844,-40.013999938964844 130.23500061035156,-41.46099853515625 C125.12699890136719,-41.604000091552734 120.10600280761719,-41.349998474121094 115.1989974975586,-40.72999954223633 C92.83399963378906,-91.2490005493164 42.270999908447266,-126.5 -16.531999588012695,-126.5 C-83.23600006103516,-126.5 -139.33900451660156,-81.14199829101562 -155.7010040283203,-19.58799934387207 C-194.66200256347656,-13.717000007629395 -224.53199768066406,19.900999069213867 -224.53199768066406,60.5 C-224.53199768066406,61.25699996948242 -224.52200317382812,62.0099983215332 -224.50100708007812,62.762001037597656 C-223.5229949951172,98.39600372314453 -193.73300170898438,126.5 -158.0850067138672,126.5z"/></g></g><g transform="matrix(0.37666210532188416,0,0,0.37666210532188416,437.4966735839844,393.37664794921875)" opacity="1" style="display: block;"><g opacity="1" transform="matrix(1,0,0,1,-3,-1)"><path fill="#dde0ff" fill-opacity="1" d=" M0,-119 C65.67610168457031,-119 119,-65.67610168457031 119,0 C119,65.67610168457031 65.67610168457031,119 0,119 C-65.67610168457031,119 -119,65.67610168457031 -119,0 C-119,-65.67610168457031 -65.67610168457031,-119 0,-119z"/></g></g><g transform="matrix(0.37666216492652893,0,0,0.37666216492652893,586.4966430664062,390.37664794921875)" opacity="1" style="display: block;"><g opacity="1" transform="matrix(1,0,0,1,-3,-1)"><path fill="#dde0ff" fill-opacity="1" d=" M0,-119 C65.67610168457031,-119 119,-65.67610168457031 119,0 C119,65.67610168457031 65.67610168457031,119 0,119 C-65.67610168457031,119 -119,65.67610168457031 -119,0 C-119,-65.67610168457031 -65.67610168457031,-119 0,-119z"/></g></g><g transform="matrix(0.8966615796089172,0,0,0.8966615796089172,492.5849914550781,326.89666748046875)" opacity="1" style="display: block;"><g opacity="1" transform="matrix(1,0,0,1,-3,-1)"><path fill="#dde0ff" fill-opacity="1" d=" M0,-119 C65.67610168457031,-119 119,-65.67610168457031 119,0 C119,65.67610168457031 65.67610168457031,119 0,119 C-65.67610168457031,119 -119,65.67610168457031 -119,0 C-119,-65.67610168457031 -65.67610168457031,-119 0,-119z"/></g></g><g transform="matrix(1.159999966621399,0,0,1.159999966621399,517.2640380859375,262.14654541015625)" opacity="1" style="display: none;"><g opacity="1" transform="matrix(1,0,0,1,0,0)"><path fill="#dde0ff" fill-opacity="1" d=" M55.2859992980957,254.7449951171875 C55.2859992980957,254.7449951171875 0.8389999866485596,200.29800415039062 0.8389999866485596,200.29800415039062 C-4.043000221252441,195.41600036621094 -11.956999778747559,195.41600036621094 -16.839000701904297,200.29800415039062 C-16.839000701904297,200.29800415039062 -71.28600311279297,254.7449951171875 -71.28600311279297,254.7449951171875 C-76.16699981689453,259.62701416015625 -76.16699981689453,267.5419921875 -71.28600311279297,272.4230041503906 C-66.40399932861328,277.30499267578125 -58.49100112915039,277.30499267578125 -53.60900115966797,272.4230041503906 C-53.60900115966797,272.4230041503906 -20.5,239.31399536132812 -20.5,239.31399536132812 C-20.5,239.31399536132812 -20.5,324.0840148925781 -20.5,324.0840148925781 C-20.5,330.98699951171875 -14.902999877929688,336.5840148925781 -8,336.5840148925781 C-1.097000002861023,336.5840148925781 4.5,330.98699951171875 4.5,324.0840148925781 C4.5,324.0840148925781 4.5,239.31399536132812 4.5,239.31399536132812 C4.5,239.31399536132812 37.608001708984375,272.4230041503906 37.608001708984375,272.4230041503906 C40.04800033569336,274.864013671875 43.24800109863281,276.0840148925781 46.446998596191406,276.0840148925781 C49.645999908447266,276.0840148925781 52.84600067138672,274.864013671875 55.2859992980957,272.4230041503906 C60.167999267578125,267.5419921875 60.167999267578125,259.62701416015625 55.2859992980957,254.7449951171875z"/></g></g><g mask="url(#__lottie_element_118)" style="display: block;"><g transform="matrix(1.159999966621399,0,0,1.159999966621399,517.2640380859375,262.14654541015625)" opacity="1"><g opacity="1" transform="matrix(1,0,0,1,0,0)"><path fill="#dde0ff" fill-opacity="1" d=" M55.2859992980957,254.7449951171875 C55.2859992980957,254.7449951171875 0.8389999866485596,200.29800415039062 0.8389999866485596,200.29800415039062 C-4.043000221252441,195.41600036621094 -11.956999778747559,195.41600036621094 -16.839000701904297,200.29800415039062 C-16.839000701904297,200.29800415039062 -71.28600311279297,254.7449951171875 -71.28600311279297,254.7449951171875 C-76.16699981689453,259.62701416015625 -76.16699981689453,267.5419921875 -71.28600311279297,272.4230041503906 C-66.40399932861328,277.30499267578125 -58.49100112915039,277.30499267578125 -53.60900115966797,272.4230041503906 C-53.60900115966797,272.4230041503906 -20.5,239.31399536132812 -20.5,239.31399536132812 C-20.5,239.31399536132812 -20.5,324.0840148925781 -20.5,324.0840148925781 C-20.5,330.98699951171875 -14.902999877929688,336.5840148925781 -8,336.5840148925781 C-1.097000002861023,336.5840148925781 4.5,330.98699951171875 4.5,324.0840148925781 C4.5,324.0840148925781 4.5,239.31399536132812 4.5,239.31399536132812 C4.5,239.31399536132812 37.608001708984375,272.4230041503906 37.608001708984375,272.4230041503906 C40.04800033569336,274.864013671875 43.24800109863281,276.0840148925781 46.446998596191406,276.0840148925781 C49.645999908447266,276.0840148925781 52.84600067138672,274.864013671875 55.2859992980957,272.4230041503906 C60.167999267578125,267.5419921875 60.167999267578125,259.62701416015625 55.2859992980957,254.7449951171875z"/></g></g></g><g transform="matrix(1,0,0,1,720,230)" opacity="0.049855238255951805" style="display: none;"><g opacity="1" transform="matrix(1,0,0,1,-233,-159)"><path fill="#7882ff" fill-opacity="1" d=" M0,-19 C10.486100196838379,-19 19,-10.486100196838379 19,0 C19,10.486100196838379 10.486100196838379,19 0,19 C-10.486100196838379,19 -19,10.486100196838379 -19,0 C-19,-10.486100196838379 -10.486100196838379,-19 0,-19z"/></g></g><g transform="matrix(1,0,0,1,1020,404)" opacity="0.0000058421135757669165" style="display: block;"><g opacity="1" transform="matrix(1,0,0,1,-233,-159)"><path fill="#7882ff" fill-opacity="1" d=" M0,-19 C10.486100196838379,-19 19,-10.486100196838379 19,0 C19,10.486100196838379 10.486100196838379,19 0,19 C-10.486100196838379,19 -19,10.486100196838379 -19,0 C-19,-10.486100196838379 -10.486100196838379,-19 0,-19z"/></g></g><g transform="matrix(1,0,0,1,464,450)" opacity="0.04995593662037195" style="display: none;"><g opacity="1" transform="matrix(1,0,0,1,-233,-159)"><path fill="#7882ff" fill-opacity="1" d=" M0,-19 C10.486100196838379,-19 19,-10.486100196838379 19,0 C19,10.486100196838379 10.486100196838379,19 0,19 C-10.486100196838379,19 -19,10.486100196838379 -19,0 C-19,-10.486100196838379 -10.486100196838379,-19 0,-19z"/></g></g></g><g clip-path="url(#__lottie_element_72)" style="display: block;" transform="matrix(1,0,0,1,0,40)" opacity="0.3"><g transform="matrix(1,0,0,1,508.0159912109375,318)" opacity="1" style="display: block;"><g opacity="1" transform="matrix(1,0,0,1,0,0)"><path fill="#dde0ff" fill-opacity="1" d=" M-158.0850067138672,126.5 C-158.0850067138672,126.5 157.67999267578125,126.5 157.67999267578125,126.5 C189.82899475097656,126.5 217.70899963378906,103.552001953125 223.093994140625,71.85700225830078 C224.05999755859375,66.16899871826172 224.531005859375,60.31399917602539 224.46099853515625,54.334999084472656 C223.85299682617188,2.5390000343322754 182.01499938964844,-40.013999938964844 130.23500061035156,-41.46099853515625 C125.12699890136719,-41.604000091552734 120.10600280761719,-41.349998474121094 115.1989974975586,-40.72999954223633 C92.83399963378906,-91.2490005493164 42.270999908447266,-126.5 -16.531999588012695,-126.5 C-83.23600006103516,-126.5 -139.33900451660156,-81.14199829101562 -155.7010040283203,-19.58799934387207 C-194.66200256347656,-13.717000007629395 -224.53199768066406,19.900999069213867 -224.53199768066406,60.5 C-224.53199768066406,61.25699996948242 -224.52200317382812,62.0099983215332 -224.50100708007812,62.762001037597656 C-223.5229949951172,98.39600372314453 -193.73300170898438,126.5 -158.0850067138672,126.5z"/></g></g><g transform="matrix(0.37665998935699463,0,0,0.37665998935699463,437.49664306640625,393.37664794921875)" opacity="1" style="display: block;"><g opacity="1" transform="matrix(1,0,0,1,-3,-1)"><path fill="#dde0ff" fill-opacity="1" d=" M0,-119 C65.67610168457031,-119 119,-65.67610168457031 119,0 C119,65.67610168457031 65.67610168457031,119 0,119 C-65.67610168457031,119 -119,65.67610168457031 -119,0 C-119,-65.67610168457031 -65.67610168457031,-119 0,-119z"/></g></g><g transform="matrix(0.37665998935699463,0,0,0.37665998935699463,586.4966430664062,390.37664794921875)" opacity="1" style="display: block;"><g opacity="1" transform="matrix(1,0,0,1,-3,-1)"><path fill="#dde0ff" fill-opacity="1" d=" M0,-119 C65.67610168457031,-119 119,-65.67610168457031 119,0 C119,65.67610168457031 65.67610168457031,119 0,119 C-65.67610168457031,119 -119,65.67610168457031 -119,0 C-119,-65.67610168457031 -65.67610168457031,-119 0,-119z"/></g></g><g transform="matrix(0.8966600298881531,0,0,0.8966600298881531,492.5849914550781,326.89666748046875)" opacity="1" style="display: block;"><g opacity="1" transform="matrix(1,0,0,1,-3,-1)"><path fill="#dde0ff" fill-opacity="1" d=" M0,-119 C65.67610168457031,-119 119,-65.67610168457031 119,0 C119,65.67610168457031 65.67610168457031,119 0,119 C-65.67610168457031,119 -119,65.67610168457031 -119,0 C-119,-65.67610168457031 -65.67610168457031,-119 0,-119z"/></g></g><g transform="matrix(1.159999966621399,0,0,1.159999966621399,517.2640380859375,262.14654541015625)" opacity="1" style="display: none;"><g opacity="1" transform="matrix(1,0,0,1,0,0)"><path fill="#dde0ff" fill-opacity="1" d=" M55.2859992980957,254.7449951171875 C55.2859992980957,254.7449951171875 0.8389999866485596,200.29800415039062 0.8389999866485596,200.29800415039062 C-4.043000221252441,195.41600036621094 -11.956999778747559,195.41600036621094 -16.839000701904297,200.29800415039062 C-16.839000701904297,200.29800415039062 -71.28600311279297,254.7449951171875 -71.28600311279297,254.7449951171875 C-76.16699981689453,259.62701416015625 -76.16699981689453,267.5419921875 -71.28600311279297,272.4230041503906 C-66.40399932861328,277.30499267578125 -58.49100112915039,277.30499267578125 -53.60900115966797,272.4230041503906 C-53.60900115966797,272.4230041503906 -20.5,239.31399536132812 -20.5,239.31399536132812 C-20.5,239.31399536132812 -20.5,324.0840148925781 -20.5,324.0840148925781 C-20.5,330.98699951171875 -14.902999877929688,336.5840148925781 -8,336.5840148925781 C-1.097000002861023,336.5840148925781 4.5,330.98699951171875 4.5,324.0840148925781 C4.5,324.0840148925781 4.5,239.31399536132812 4.5,239.31399536132812 C4.5,239.31399536132812 37.608001708984375,272.4230041503906 37.608001708984375,272.4230041503906 C40.04800033569336,274.864013671875 43.24800109863281,276.0840148925781 46.446998596191406,276.0840148925781 C49.645999908447266,276.0840148925781 52.84600067138672,274.864013671875 55.2859992980957,272.4230041503906 C60.167999267578125,267.5419921875 60.167999267578125,259.62701416015625 55.2859992980957,254.7449951171875z"/></g></g><g mask="url(#__lottie_element_84)" style="display: block;"><g transform="matrix(1.159999966621399,0,0,1.159999966621399,517.2640380859375,262.14654541015625)" opacity="1"><g opacity="1" transform="matrix(1,0,0,1,0,0)"><path fill="#dde0ff" fill-opacity="1" d=" M55.2859992980957,254.7449951171875 C55.2859992980957,254.7449951171875 0.8389999866485596,200.29800415039062 0.8389999866485596,200.29800415039062 C-4.043000221252441,195.41600036621094 -11.956999778747559,195.41600036621094 -16.839000701904297,200.29800415039062 C-16.839000701904297,200.29800415039062 -71.28600311279297,254.7449951171875 -71.28600311279297,254.7449951171875 C-76.16699981689453,259.62701416015625 -76.16699981689453,267.5419921875 -71.28600311279297,272.4230041503906 C-66.40399932861328,277.30499267578125 -58.49100112915039,277.30499267578125 -53.60900115966797,272.4230041503906 C-53.60900115966797,272.4230041503906 -20.5,239.31399536132812 -20.5,239.31399536132812 C-20.5,239.31399536132812 -20.5,324.0840148925781 -20.5,324.0840148925781 C-20.5,330.98699951171875 -14.902999877929688,336.5840148925781 -8,336.5840148925781 C-1.097000002861023,336.5840148925781 4.5,330.98699951171875 4.5,324.0840148925781 C4.5,324.0840148925781 4.5,239.31399536132812 4.5,239.31399536132812 C4.5,239.31399536132812 37.608001708984375,272.4230041503906 37.608001708984375,272.4230041503906 C40.04800033569336,274.864013671875 43.24800109863281,276.0840148925781 46.446998596191406,276.0840148925781 C49.645999908447266,276.0840148925781 52.84600067138672,274.864013671875 55.2859992980957,272.4230041503906 C60.167999267578125,267.5419921875 60.167999267578125,259.62701416015625 55.2859992980957,254.7449951171875z"/></g></g></g><g transform="matrix(1,0,0,1,720,230)" opacity="0.000005242113771686263" style="display: none;"><g opacity="1" transform="matrix(1,0,0,1,-233,-159)"><path fill="#7882ff" fill-opacity="1" d=" M0,-19 C10.486100196838379,-19 19,-10.486100196838379 19,0 C19,10.486100196838379 10.486100196838379,19 0,19 C-10.486100196838379,19 -19,10.486100196838379 -19,0 C-19,-10.486100196838379 -10.486100196838379,-19 0,-19z"/></g></g><g transform="matrix(1,0,0,1,1020,404)" opacity="0.04995593682385007" style="display: none;"><g opacity="1" transform="matrix(1,0,0,1,-233,-159)"><path fill="#7882ff" fill-opacity="1" d=" M0,-19 C10.486100196838379,-19 19,-10.486100196838379 19,0 C19,10.486100196838379 10.486100196838379,19 0,19 C-10.486100196838379,19 -19,10.486100196838379 -19,0 C-19,-10.486100196838379 -10.486100196838379,-19 0,-19z"/></g></g><g transform="matrix(1,0,0,1,464,450)" opacity="0.10000013970674303" style="display: block;"><g opacity="1" transform="matrix(1,0,0,1,-233,-159)"><path fill="#7882ff" fill-opacity="1" d=" M0,-19 C10.486100196838379,-19 19,-10.486100196838379 19,0 C19,10.486100196838379 10.486100196838379,19 0,19 C-10.486100196838379,19 -19,10.486100196838379 -19,0 C-19,-10.486100196838379 -10.486100196838379,-19 0,-19z"/></g></g></g><g clip-path="url(#__lottie_element_38)" style="display: block;" transform="matrix(1,0,0,1,0,40)" opacity="0.3"><g transform="matrix(1,0,0,1,508.0159912109375,318)" opacity="1" style="display: block;"><g opacity="1" transform="matrix(1,0,0,1,0,0)"><path fill="#dde0ff" fill-opacity="1" d=" M-158.0850067138672,126.5 C-158.0850067138672,126.5 157.67999267578125,126.5 157.67999267578125,126.5 C189.82899475097656,126.5 217.70899963378906,103.552001953125 223.093994140625,71.85700225830078 C224.05999755859375,66.16899871826172 224.531005859375,60.31399917602539 224.46099853515625,54.334999084472656 C223.85299682617188,2.5390000343322754 182.01499938964844,-40.013999938964844 130.23500061035156,-41.46099853515625 C125.12699890136719,-41.604000091552734 120.10600280761719,-41.349998474121094 115.1989974975586,-40.72999954223633 C92.83399963378906,-91.2490005493164 42.270999908447266,-126.5 -16.531999588012695,-126.5 C-83.23600006103516,-126.5 -139.33900451660156,-81.14199829101562 -155.7010040283203,-19.58799934387207 C-194.66200256347656,-13.717000007629395 -224.53199768066406,19.900999069213867 -224.53199768066406,60.5 C-224.53199768066406,61.25699996948242 -224.52200317382812,62.0099983215332 -224.50100708007812,62.762001037597656 C-223.5229949951172,98.39600372314453 -193.73300170898438,126.5 -158.0850067138672,126.5z"/></g></g><g transform="matrix(0.41266006231307983,0,0,0.41266006231307983,428.6412658691406,389.4125671386719)" opacity="1" style="display: block;"><g opacity="1" transform="matrix(1,0,0,1,-3,-1)"><path fill="#dde0ff" fill-opacity="1" d=" M0,-119 C65.67610168457031,-119 119,-65.67610168457031 119,0 C119,65.67610168457031 65.67610168457031,119 0,119 C-65.67610168457031,119 -119,65.67610168457031 -119,0 C-119,-65.67610168457031 -65.67610168457031,-119 0,-119z"/></g></g><g transform="matrix(0.37665998935699463,0,0,0.37665998935699463,586.4966430664062,390.37664794921875)" opacity="1" style="display: block;"><g opacity="1" transform="matrix(1,0,0,1,-3,-1)"><path fill="#dde0ff" fill-opacity="1" d=" M0,-119 C65.67610168457031,-119 119,-65.67610168457031 119,0 C119,65.67610168457031 65.67610168457031,119 0,119 C-65.67610168457031,119 -119,65.67610168457031 -119,0 C-119,-65.67610168457031 -65.67610168457031,-119 0,-119z"/></g></g><g transform="matrix(0.8966600298881531,0,0,0.8966600298881531,492.5849914550781,326.89666748046875)" opacity="1" style="display: block;"><g opacity="1" transform="matrix(1,0,0,1,-3,-1)"><path fill="#dde0ff" fill-opacity="1" d=" M0,-119 C65.67610168457031,-119 119,-65.67610168457031 119,0 C119,65.67610168457031 65.67610168457031,119 0,119 C-65.67610168457031,119 -119,65.67610168457031 -119,0 C-119,-65.67610168457031 -65.67610168457031,-119 0,-119z"/></g></g><g transform="matrix(1.159999966621399,0,0,1.159999966621399,517.2640380859375,262.14654541015625)" opacity="1" style="display: none;"><g opacity="1" transform="matrix(1,0,0,1,0,0)"><path fill="#dde0ff" fill-opacity="1" d=" M55.2859992980957,254.7449951171875 C55.2859992980957,254.7449951171875 0.8389999866485596,200.29800415039062 0.8389999866485596,200.29800415039062 C-4.043000221252441,195.41600036621094 -11.956999778747559,195.41600036621094 -16.839000701904297,200.29800415039062 C-16.839000701904297,200.29800415039062 -71.28600311279297,254.7449951171875 -71.28600311279297,254.7449951171875 C-76.16699981689453,259.62701416015625 -76.16699981689453,267.5419921875 -71.28600311279297,272.4230041503906 C-66.40399932861328,277.30499267578125 -58.49100112915039,277.30499267578125 -53.60900115966797,272.4230041503906 C-53.60900115966797,272.4230041503906 -20.5,239.31399536132812 -20.5,239.31399536132812 C-20.5,239.31399536132812 -20.5,324.0840148925781 -20.5,324.0840148925781 C-20.5,330.98699951171875 -14.902999877929688,336.5840148925781 -8,336.5840148925781 C-1.097000002861023,336.5840148925781 4.5,330.98699951171875 4.5,324.0840148925781 C4.5,324.0840148925781 4.5,239.31399536132812 4.5,239.31399536132812 C4.5,239.31399536132812 37.608001708984375,272.4230041503906 37.608001708984375,272.4230041503906 C40.04800033569336,274.864013671875 43.24800109863281,276.0840148925781 46.446998596191406,276.0840148925781 C49.645999908447266,276.0840148925781 52.84600067138672,274.864013671875 55.2859992980957,272.4230041503906 C60.167999267578125,267.5419921875 60.167999267578125,259.62701416015625 55.2859992980957,254.7449951171875z"/></g></g><g mask="url(#__lottie_element_50)" style="display: block;"><g transform="matrix(1.159999966621399,0,0,1.159999966621399,517.2640380859375,262.14654541015625)" opacity="1"><g opacity="1" transform="matrix(1,0,0,1,0,0)"><path fill="#dde0ff" fill-opacity="1" d=" M55.2859992980957,254.7449951171875 C55.2859992980957,254.7449951171875 0.8389999866485596,200.29800415039062 0.8389999866485596,200.29800415039062 C-4.043000221252441,195.41600036621094 -11.956999778747559,195.41600036621094 -16.839000701904297,200.29800415039062 C-16.839000701904297,200.29800415039062 -71.28600311279297,254.7449951171875 -71.28600311279297,254.7449951171875 C-76.16699981689453,259.62701416015625 -76.16699981689453,267.5419921875 -71.28600311279297,272.4230041503906 C-66.40399932861328,277.30499267578125 -58.49100112915039,277.30499267578125 -53.60900115966797,272.4230041503906 C-53.60900115966797,272.4230041503906 -20.5,239.31399536132812 -20.5,239.31399536132812 C-20.5,239.31399536132812 -20.5,324.0840148925781 -20.5,324.0840148925781 C-20.5,330.98699951171875 -14.902999877929688,336.5840148925781 -8,336.5840148925781 C-1.097000002861023,336.5840148925781 4.5,330.98699951171875 4.5,324.0840148925781 C4.5,324.0840148925781 4.5,239.31399536132812 4.5,239.31399536132812 C4.5,239.31399536132812 37.608001708984375,272.4230041503906 37.608001708984375,272.4230041503906 C40.04800033569336,274.864013671875 43.24800109863281,276.0840148925781 46.446998596191406,276.0840148925781 C49.645999908447266,276.0840148925781 52.84600067138672,274.864013671875 55.2859992980957,272.4230041503906 C60.167999267578125,267.5419921875 60.167999267578125,259.62701416015625 55.2859992980957,254.7449951171875z"/></g></g></g><g transform="matrix(1,0,0,1,720,230)" opacity="0.00020514209830480468" style="display: none;"><g opacity="1" transform="matrix(1,0,0,1,-233,-159)"><path fill="#7882ff" fill-opacity="1" d=" M0,-19 C10.486100196838379,-19 19,-10.486100196838379 19,0 C19,10.486100196838379 10.486100196838379,19 0,19 C-10.486100196838379,19 -19,10.486100196838379 -19,0 C-19,-10.486100196838379 -10.486100196838379,-19 0,-19z"/></g></g><g transform="matrix(1,0,0,1,1020,404)" opacity="0.10000014011405582" style="display: block;"><g opacity="1" transform="matrix(1,0,0,1,-233,-159)"><path fill="#7882ff" fill-opacity="1" d=" M0,-19 C10.486100196838379,-19 19,-10.486100196838379 19,0 C19,10.486100196838379 10.486100196838379,19 0,19 C-10.486100196838379,19 -19,10.486100196838379 -19,0 C-19,-10.486100196838379 -10.486100196838379,-19 0,-19z"/></g></g><g transform="matrix(1,0,0,1,464,450)" opacity="0.20000012870941958" style="display: block;"><g opacity="1" transform="matrix(1,0,0,1,-233,-159)"><path fill="#7882ff" fill-opacity="1" d=" M0,-19 C10.486100196838379,-19 19,-10.486100196838379 19,0 C19,10.486100196838379 10.486100196838379,19 0,19 C-10.486100196838379,19 -19,10.486100196838379 -19,0 C-19,-10.486100196838379 -10.486100196838379,-19 0,-19z"/></g></g></g><g clip-path="url(#__lottie_element_4)" style="display: block;" transform="matrix(1,0,0,1,0,40)" opacity="0.3"><g transform="matrix(1,0,0,1,508.0159912109375,318)" opacity="1" style="display: block;"><g opacity="1" transform="matrix(1,0,0,1,0,0)"><path fill="#dde0ff" fill-opacity="1" d=" M-158.0850067138672,126.5 C-158.0850067138672,126.5 157.67999267578125,126.5 157.67999267578125,126.5 C189.82899475097656,126.5 217.70899963378906,103.552001953125 223.093994140625,71.85700225830078 C224.05999755859375,66.16899871826172 224.531005859375,60.31399917602539 224.46099853515625,54.334999084472656 C223.85299682617188,2.5390000343322754 182.01499938964844,-40.013999938964844 130.23500061035156,-41.46099853515625 C125.12699890136719,-41.604000091552734 120.10600280761719,-41.349998474121094 115.1989974975586,-40.72999954223633 C92.83399963378906,-91.2490005493164 42.270999908447266,-126.5 -16.531999588012695,-126.5 C-83.23600006103516,-126.5 -139.33900451660156,-81.14199829101562 -155.7010040283203,-19.58799934387207 C-194.66200256347656,-13.717000007629395 -224.53199768066406,19.900999069213867 -224.53199768066406,60.5 C-224.53199768066406,61.25699996948242 -224.52200317382812,62.0099983215332 -224.50100708007812,62.762001037597656 C-223.5229949951172,98.39600372314453 -193.73300170898438,126.5 -158.0850067138672,126.5z"/></g></g><g transform="matrix(0.4486600458621979,0,0,0.4486600458621979,419.7858581542969,385.44854736328125)" opacity="1" style="display: block;"><g opacity="1" transform="matrix(1,0,0,1,-3,-1)"><path fill="#dde0ff" fill-opacity="1" d=" M0,-119 C65.67610168457031,-119 119,-65.67610168457031 119,0 C119,65.67610168457031 65.67610168457031,119 0,119 C-65.67610168457031,119 -119,65.67610168457031 -119,0 C-119,-65.67610168457031 -65.67610168457031,-119 0,-119z"/></g></g><g transform="matrix(0.3766622841358185,0,0,0.3766622841358185,586.4966430664062,390.37664794921875)" opacity="1" style="display: block;"><g opacity="1" transform="matrix(1,0,0,1,-3,-1)"><path fill="#dde0ff" fill-opacity="1" d=" M0,-119 C65.67610168457031,-119 119,-65.67610168457031 119,0 C119,65.67610168457031 65.67610168457031,119 0,119 C-65.67610168457031,119 -119,65.67610168457031 -119,0 C-119,-65.67610168457031 -65.67610168457031,-119 0,-119z"/></g></g><g transform="matrix(0.8966616988182068,0,0,0.8966616988182068,492.5849914550781,326.89666748046875)" opacity="1" style="display: block;"><g opacity="1" transform="matrix(1,0,0,1,-3,-1)"><path fill="#dde0ff" fill-opacity="1" d=" M0,-119 C65.67610168457031,-119 119,-65.67610168457031 119,0 C119,65.67610168457031 65.67610168457031,119 0,119 C-65.67610168457031,119 -119,65.67610168457031 -119,0 C-119,-65.67610168457031 -65.67610168457031,-119 0,-119z"/></g></g><g transform="matrix(1.159999966621399,0,0,1.159999966621399,517.2640380859375,262.14654541015625)" opacity="1" style="display: none;"><g opacity="1" transform="matrix(1,0,0,1,0,0)"><path fill="#dde0ff" fill-opacity="1" d=" M55.2859992980957,254.7449951171875 C55.2859992980957,254.7449951171875 0.8389999866485596,200.29800415039062 0.8389999866485596,200.29800415039062 C-4.043000221252441,195.41600036621094 -11.956999778747559,195.41600036621094 -16.839000701904297,200.29800415039062 C-16.839000701904297,200.29800415039062 -71.28600311279297,254.7449951171875 -71.28600311279297,254.7449951171875 C-76.16699981689453,259.62701416015625 -76.16699981689453,267.5419921875 -71.28600311279297,272.4230041503906 C-66.40399932861328,277.30499267578125 -58.49100112915039,277.30499267578125 -53.60900115966797,272.4230041503906 C-53.60900115966797,272.4230041503906 -20.5,239.31399536132812 -20.5,239.31399536132812 C-20.5,239.31399536132812 -20.5,324.0840148925781 -20.5,324.0840148925781 C-20.5,330.98699951171875 -14.902999877929688,336.5840148925781 -8,336.5840148925781 C-1.097000002861023,336.5840148925781 4.5,330.98699951171875 4.5,324.0840148925781 C4.5,324.0840148925781 4.5,239.31399536132812 4.5,239.31399536132812 C4.5,239.31399536132812 37.608001708984375,272.4230041503906 37.608001708984375,272.4230041503906 C40.04800033569336,274.864013671875 43.24800109863281,276.0840148925781 46.446998596191406,276.0840148925781 C49.645999908447266,276.0840148925781 52.84600067138672,274.864013671875 55.2859992980957,272.4230041503906 C60.167999267578125,267.5419921875 60.167999267578125,259.62701416015625 55.2859992980957,254.7449951171875z"/></g></g><g mask="url(#__lottie_element_16)" style="display: block;"><g transform="matrix(1.159999966621399,0,0,1.159999966621399,517.2640380859375,262.14654541015625)" opacity="1"><g opacity="1" transform="matrix(1,0,0,1,0,0)"><path fill="#dde0ff" fill-opacity="1" d=" M55.2859992980957,254.7449951171875 C55.2859992980957,254.7449951171875 0.8389999866485596,200.29800415039062 0.8389999866485596,200.29800415039062 C-4.043000221252441,195.41600036621094 -11.956999778747559,195.41600036621094 -16.839000701904297,200.29800415039062 C-16.839000701904297,200.29800415039062 -71.28600311279297,254.7449951171875 -71.28600311279297,254.7449951171875 C-76.16699981689453,259.62701416015625 -76.16699981689453,267.5419921875 -71.28600311279297,272.4230041503906 C-66.40399932861328,277.30499267578125 -58.49100112915039,277.30499267578125 -53.60900115966797,272.4230041503906 C-53.60900115966797,272.4230041503906 -20.5,239.31399536132812 -20.5,239.31399536132812 C-20.5,239.31399536132812 -20.5,324.0840148925781 -20.5,324.0840148925781 C-20.5,330.98699951171875 -14.902999877929688,336.5840148925781 -8,336.5840148925781 C-1.097000002861023,336.5840148925781 4.5,330.98699951171875 4.5,324.0840148925781 C4.5,324.0840148925781 4.5,239.31399536132812 4.5,239.31399536132812 C4.5,239.31399536132812 37.608001708984375,272.4230041503906 37.608001708984375,272.4230041503906 C40.04800033569336,274.864013671875 43.24800109863281,276.0840148925781 46.446998596191406,276.0840148925781 C49.645999908447266,276.0840148925781 52.84600067138672,274.864013671875 55.2859992980957,272.4230041503906 C60.167999267578125,267.5419921875 60.167999267578125,259.62701416015625 55.2859992980957,254.7449951171875z"/></g></g></g><g transform="matrix(1,0,0,1,720,230)" opacity="0.00010534210603523776" style="display: none;"><g opacity="1" transform="matrix(1,0,0,1,-233,-159)"><path fill="#7882ff" fill-opacity="1" d=" M0,-19 C10.486100196838379,-19 19,-10.486100196838379 19,0 C19,10.486100196838379 10.486100196838379,19 0,19 C-10.486100196838379,19 -19,10.486100196838379 -19,0 C-19,-10.486100196838379 -10.486100196838379,-19 0,-19z"/></g></g><g transform="matrix(1,0,0,1,1020,404)" opacity="0.2000001295240402" style="display: block;"><g opacity="1" transform="matrix(1,0,0,1,-233,-159)"><path fill="#7882ff" fill-opacity="1" d=" M0,-19 C10.486100196838379,-19 19,-10.486100196838379 19,0 C19,10.486100196838379 10.486100196838379,19 0,19 C-10.486100196838379,19 -19,10.486100196838379 -19,0 C-19,-10.486100196838379 -10.486100196838379,-19 0,-19z"/></g></g><g transform="matrix(1,0,0,1,464.1864929199219,450.1337890625)" opacity="0.3000001177120963" style="display: block;"><g opacity="1" transform="matrix(1,0,0,1,-233,-159)"><path fill="#7882ff" fill-opacity="1" d=" M0,-19 C10.486100196838379,-19 19,-10.486100196838379 19,0 C19,10.486100196838379 10.486100196838379,19 0,19 C-10.486100196838379,19 -19,10.486100196838379 -19,0 C-19,-10.486100196838379 -10.486100196838379,-19 0,-19z"/></g></g></g></g></svg>